<mxfile host="app.diagrams.net" agent="Mozilla/5.0 (Macintosh; Intel Mac OS X 10_15_7) AppleWebKit/537.36 (KHTML, like Gecko) Chrome/135.0.0.0 Safari/537.36" version="26.2.14">
  <diagram name="Page-1" id="IqA5cppJyQJ8EA1TjgCM">
    <mxGraphModel grid="1" page="1" gridSize="10" guides="1" tooltips="1" connect="1" arrows="1" fold="1" pageScale="1" pageWidth="850" pageHeight="1100" math="0" shadow="0">
      <root>
        <mxCell id="0" />
        <mxCell id="1" parent="0" />
        <mxCell id="gZ1Z6LoSmOam38nPm6Iv-1" value="Ingestion/Storage Layer" style="text;html=1;strokeColor=#006EAF;fillColor=#1ba1e2;align=center;verticalAlign=middle;whiteSpace=wrap;rounded=0;fontColor=#ffffff;" vertex="1" parent="1">
          <mxGeometry x="490" y="60" width="530" height="30" as="geometry" />
        </mxCell>
        <mxCell id="gZ1Z6LoSmOam38nPm6Iv-2" value="Transformation Layer" style="text;html=1;strokeColor=#005700;fillColor=#008a00;align=center;verticalAlign=middle;whiteSpace=wrap;rounded=0;fontColor=#ffffff;" vertex="1" parent="1">
          <mxGeometry x="1040" y="60" width="630" height="30" as="geometry" />
        </mxCell>
        <mxCell id="gZ1Z6LoSmOam38nPm6Iv-3" value="Semantic Layer/Datawarehouse" style="text;html=1;strokeColor=#3700CC;fillColor=#6a00ff;align=center;verticalAlign=middle;whiteSpace=wrap;rounded=0;fontColor=#ffffff;" vertex="1" parent="1">
          <mxGeometry x="1690" y="60" width="270" height="30" as="geometry" />
        </mxCell>
        <mxCell id="gZ1Z6LoSmOam38nPm6Iv-4" value="BI/Analytics" style="text;html=1;strokeColor=#005700;fillColor=#008a00;align=center;verticalAlign=middle;whiteSpace=wrap;rounded=0;fontColor=#ffffff;" vertex="1" parent="1">
          <mxGeometry x="1980" y="60" width="1290" height="30" as="geometry" />
        </mxCell>
        <mxCell id="gZ1Z6LoSmOam38nPm6Iv-5" value="" style="edgeStyle=orthogonalEdgeStyle;rounded=0;orthogonalLoop=1;jettySize=auto;html=1;" edge="1" parent="1" source="gZ1Z6LoSmOam38nPm6Iv-6" target="gZ1Z6LoSmOam38nPm6Iv-10">
          <mxGeometry relative="1" as="geometry">
            <mxPoint x="540" y="190" as="targetPoint" />
          </mxGeometry>
        </mxCell>
        <mxCell id="gZ1Z6LoSmOam38nPm6Iv-6" value="&lt;b&gt;File CSV&lt;/b&gt;" style="rounded=0;whiteSpace=wrap;html=1;" vertex="1" parent="1">
          <mxGeometry x="510" y="170" width="120" height="60" as="geometry" />
        </mxCell>
        <mxCell id="gZ1Z6LoSmOam38nPm6Iv-7" value="" style="edgeStyle=orthogonalEdgeStyle;rounded=0;orthogonalLoop=1;jettySize=auto;html=1;" edge="1" parent="1" source="gZ1Z6LoSmOam38nPm6Iv-8" target="gZ1Z6LoSmOam38nPm6Iv-9">
          <mxGeometry relative="1" as="geometry">
            <mxPoint x="190" y="340" as="targetPoint" />
          </mxGeometry>
        </mxCell>
        <mxCell id="gZ1Z6LoSmOam38nPm6Iv-8" value="AWS Lambda" style="sketch=0;outlineConnect=0;fontColor=#232F3E;gradientColor=none;strokeColor=#ffffff;fillColor=#232F3E;dashed=0;verticalLabelPosition=middle;verticalAlign=bottom;align=center;html=1;whiteSpace=wrap;fontSize=10;fontStyle=1;spacing=3;shape=mxgraph.aws4.productIcon;prIcon=mxgraph.aws4.lambda;" vertex="1" parent="1">
          <mxGeometry x="530" y="310" width="80" height="100" as="geometry" />
        </mxCell>
        <mxCell id="gZ1Z6LoSmOam38nPm6Iv-9" value="Amazon S3" style="sketch=0;outlineConnect=0;fontColor=#232F3E;gradientColor=none;strokeColor=#ffffff;fillColor=#232F3E;dashed=0;verticalLabelPosition=middle;verticalAlign=bottom;align=center;html=1;whiteSpace=wrap;fontSize=10;fontStyle=1;spacing=3;shape=mxgraph.aws4.productIcon;prIcon=mxgraph.aws4.s3;" vertex="1" parent="1">
          <mxGeometry x="750" y="310" width="80" height="100" as="geometry" />
        </mxCell>
        <mxCell id="gZ1Z6LoSmOam38nPm6Iv-10" value="Amazon S3" style="sketch=0;outlineConnect=0;fontColor=#232F3E;gradientColor=none;strokeColor=#ffffff;fillColor=#232F3E;dashed=0;verticalLabelPosition=middle;verticalAlign=bottom;align=center;html=1;whiteSpace=wrap;fontSize=10;fontStyle=1;spacing=3;shape=mxgraph.aws4.productIcon;prIcon=mxgraph.aws4.s3;" vertex="1" parent="1">
          <mxGeometry x="750" y="150" width="80" height="100" as="geometry" />
        </mxCell>
        <mxCell id="gZ1Z6LoSmOam38nPm6Iv-11" value="" style="edgeStyle=orthogonalEdgeStyle;rounded=0;orthogonalLoop=1;jettySize=auto;html=1;" edge="1" parent="1" source="gZ1Z6LoSmOam38nPm6Iv-12" target="gZ1Z6LoSmOam38nPm6Iv-15">
          <mxGeometry relative="1" as="geometry" />
        </mxCell>
        <mxCell id="gZ1Z6LoSmOam38nPm6Iv-12" value="" style="shape=image;verticalLabelPosition=bottom;labelBackgroundColor=default;verticalAlign=top;aspect=fixed;imageAspect=0;image=data:image/png,iVBORw0KGgoAAAANSUhEUgAAAQ4AAACUCAMAAABV5TcGAAAAWlBMVEX5+fn///8ktOj7/v/V7vZUwuvH6PU3vOort+lCvuvq+P2D0vH0+Pnk8/nr9vr9+vnc8/u35viP1vJty++Z2PGv3/Kq4fW/6fjO7vry+/5fxu15z/Cg3fST2vOVvNliAAAHWklEQVR4nO2ba4+jOgyGSyEQSGkDodzn///NYztcEoadw3xYdSP5kVbaTtuofuvYjuPebgzDMAzDMAzDMAzDMAzDMAzDMAzDMAzDMAzDMAzDMAzDMAzDMAzDMAzDMAxzhadOUp+kfPxqhUfpr9D/doF/h2enRJ755Gbur9vzSBsj/PfnY50+Xn/xU/8tkjq/nyDFXF5b4FU24mwF0QaoRzJJNN6Xgh5nTXnJnFJJ96072RzchtFoixSTIib6mjOjplyiOeXzyPA48qzvzgoqt48mAQvkVWB6PGf4+FJ1haUaycl1ofHv91zVOw0xtyvvha8MVjBVaVfocD0D63UG9BiTTxv4Kx7piGroOCKK2n6lUaSbJaDIA9kx5qIbSdMvK8RfsNFMCo9iWrp+ftrE31Ci/SaJFls62CtyHkANdRpe/4TolhWiXqCepE1c5fhMQNH0ke6fHp0D44jRUWSDI3zzDq5LuO6CHvQ1LCsM6ByqWB6owNzj0cCnn8rtqwX3zto4GhraAG8qqDqg8rGxY55n+DfCS4VeV0hghXx3FYgqog/HPUrjOscwL86BHi+nJL6AhhXu9bpC1KK8xfpomHDvhZNc0tzabynp04NzfIGJY7rZ+BMYbbJ+ffTEFdr92Qr0na4VL/8AD7BbNuu+J6cQkCK08P78E9ahtpdiKNp3TkQriTQUOfDLzLvVCx4tbHX09DcWDL1vdzzgy4ajRgWscJ89cZTjVRhM8zaU3dLnEDCT7bND0sUsaxOCb3jc1/BMX7cHPTD45qkrjpzd5zGWBJNbKicrgmcb6yvaS76LVM0976PJyRpWJSot9hWw8PLcCoNTKMGD0uzshQ7cIx0V147NOingXJKnsUGZyqTYpLK7Y1sB46ooIwcUaAwk1T6U6wZxZ9NMPN9dn4Fawoi6UxLkAO+Yq2ncFaSift5WaHEF5512+4ju04Ze4vUcMe5vTvDGfV7Y0OHklRjigxTiTnLIERzA2V8TvKfad9QhktoqNZBj7UsLN4OgMShDiaXp2zWpwrOp3SxYuk9bLqJwk23hhGr8L1cNcDUJdW4YciReEYaOLyFzUCTdI2aR6iJpoBSnUArugaf/9QSMiUVsgpboK15igVibgcZBpJYXHikcOahGiKNEuCbGjTAgQKqEKqNqHL8SFGda3tV7/oW+sm8dCwSkQDLtC1PIfsDAqIeBFSPquIk0YPadqrLUupu7HvtC4CmZjTjUENhf628d+4oU5bjYc/0sL7/sWI9zvhxxBdbLXPVDNWamHzoDLpU35SIHbrfSkyP15CD/UUEUHidyiFWOvXiI9Re2+5puNDNEUSy0pn5Ytfoux6G4t3J82tQrkBz1qXcYp5bS2AvN2kqMKlPU8DOVK8d0QY7AvcORo8PNMrYFmA5BIO5VtldpF+TAKj1YOU5ih4EarEmGskurtu/6oaggeuTWaIodBzn8ULrI8WlTr4CZRf5fZokqU/dDCRrAMWbORJ0MejbLFqPMYn6UA1dTYSRarDv273atO/rcrTuiuCyKDvvqWYdVqRznpCiHtQzzEi110/y6g8qwQOqO71VpNn+rSuGJL3s118UTXbyYvUhPvKoUi/RjVYoNj0Cq0h/OLE6/EyupDE5uJMfxCGdc6eh8G+6Z5WncCyM80aKl1P5unHOpVqbtlSQ58rmDR9txF+9jfj7R1sGcaG2/4/2t34H95MnpWsRaD0NtYwe2f7TT/qEG0t7vyL71O0ww/Y7bYz5ppNvbALcbZu3O4CnlONMugN8Ny7X7gkSE0w27YdhXXp7ETIsR9tgrjfX8ptZx4f+5E/I+eqFEeoJ1AfVKb/jd7Z3059pJN4fuIBmOuTUejldRdAnppZa7G3YwkgaSZ2/2nkVU3tbHOqQ9uWf5A35u/RY8BirtPm3mVR5Lbl2gYQSQAXdLdu0Wzkro3cLljpC4Uji3cDdKJofmXozNYwlB89IdLV3677sFKpM901g/m4I4sRB4bMMJhsW18dYEa2470JQOJzf2Ueyr5LeLwVmks1sGOyDxaSsv80ABpi010iADugeWl3JscIqjqt7OZEdnZ2gdam++A6+Z8k1fyFyQsoPZKza3ZFuVuU3/0DjhXR6nwL4jBI6G3bfpH7yz2s5BdGVbD5+28Rc8aTZsm3OrhL2tjhOVy5MZsD/Phq0OgeegzF7TDRhmRfppE39FP9pBn+X7rGma9Alm1dnJ2OA+DnbArO3TCLefgJItGkjbME6zGw+8V5VTt0yFogn3vOl1T4OUoplpmHSbLVU+E0GBt+01QcOHYu6TFkdUTVhzpcsopRSKLK1p2BjO82bE/+Tv5+DPHJcn6IbuLI3VxtAEZj4aXCCU05uDVt62cHZAPj+PWeF1AiianYeUUI72Hvr89wZyfF/d9+UsTuKJHKsAf7EA6SVtzCh8RtUm17/aoZ/VYYVxmpMg1bjRb5UO6Odvf+2kDysE+2snhmEYhmEYhmEYhmEYhmEYhmEYhmEYhmEYhmEYhmEYhmGC5z8Y+4qa+rx3yQAAAABJRU5ErkJggg==;clipPath=inset(27.7% 25.19% 19.59% 27.41%);" vertex="1" parent="1">
          <mxGeometry x="900" y="177.5" width="106.67" height="65" as="geometry" />
        </mxCell>
        <mxCell id="gZ1Z6LoSmOam38nPm6Iv-13" value="" style="edgeStyle=orthogonalEdgeStyle;rounded=0;orthogonalLoop=1;jettySize=auto;html=1;" edge="1" parent="1" target="gZ1Z6LoSmOam38nPm6Iv-17">
          <mxGeometry relative="1" as="geometry">
            <mxPoint x="1016.6700000000001" y="375.57142857142867" as="sourcePoint" />
          </mxGeometry>
        </mxCell>
        <mxCell id="gZ1Z6LoSmOam38nPm6Iv-14" value="" style="edgeStyle=orthogonalEdgeStyle;rounded=0;orthogonalLoop=1;jettySize=auto;html=1;" edge="1" parent="1" source="gZ1Z6LoSmOam38nPm6Iv-15" target="gZ1Z6LoSmOam38nPm6Iv-19">
          <mxGeometry relative="1" as="geometry" />
        </mxCell>
        <mxCell id="gZ1Z6LoSmOam38nPm6Iv-15" value="&lt;b&gt;Raw Table&lt;/b&gt;" style="rounded=0;whiteSpace=wrap;html=1;" vertex="1" parent="1">
          <mxGeometry x="1050" y="185" width="90" height="50" as="geometry" />
        </mxCell>
        <mxCell id="gZ1Z6LoSmOam38nPm6Iv-16" value="" style="edgeStyle=orthogonalEdgeStyle;rounded=0;orthogonalLoop=1;jettySize=auto;html=1;" edge="1" parent="1" source="gZ1Z6LoSmOam38nPm6Iv-17" target="gZ1Z6LoSmOam38nPm6Iv-21">
          <mxGeometry relative="1" as="geometry" />
        </mxCell>
        <mxCell id="gZ1Z6LoSmOam38nPm6Iv-17" value="&lt;b&gt;Raw Table&lt;/b&gt;" style="rounded=0;whiteSpace=wrap;html=1;" vertex="1" parent="1">
          <mxGeometry x="1050" y="352.5" width="90" height="47" as="geometry" />
        </mxCell>
        <mxCell id="gZ1Z6LoSmOam38nPm6Iv-18" value="" style="edgeStyle=orthogonalEdgeStyle;rounded=0;orthogonalLoop=1;jettySize=auto;html=1;" edge="1" parent="1" source="gZ1Z6LoSmOam38nPm6Iv-19" target="gZ1Z6LoSmOam38nPm6Iv-22">
          <mxGeometry relative="1" as="geometry" />
        </mxCell>
        <mxCell id="gZ1Z6LoSmOam38nPm6Iv-19" value="&lt;b&gt;Stream&lt;/b&gt;" style="rounded=0;whiteSpace=wrap;html=1;" vertex="1" parent="1">
          <mxGeometry x="1200" y="185" width="90" height="50" as="geometry" />
        </mxCell>
        <mxCell id="gZ1Z6LoSmOam38nPm6Iv-20" value="" style="edgeStyle=orthogonalEdgeStyle;rounded=0;orthogonalLoop=1;jettySize=auto;html=1;" edge="1" parent="1" source="gZ1Z6LoSmOam38nPm6Iv-21" target="gZ1Z6LoSmOam38nPm6Iv-23">
          <mxGeometry relative="1" as="geometry" />
        </mxCell>
        <mxCell id="gZ1Z6LoSmOam38nPm6Iv-21" value="&lt;b&gt;Stream&lt;/b&gt;" style="rounded=0;whiteSpace=wrap;html=1;" vertex="1" parent="1">
          <mxGeometry x="1200" y="353.5" width="110" height="45" as="geometry" />
        </mxCell>
        <mxCell id="GgnGnMgsyZlveraI0ygd-10" value="" style="edgeStyle=orthogonalEdgeStyle;rounded=0;orthogonalLoop=1;jettySize=auto;html=1;" edge="1" parent="1" source="gZ1Z6LoSmOam38nPm6Iv-22" target="GgnGnMgsyZlveraI0ygd-2">
          <mxGeometry relative="1" as="geometry" />
        </mxCell>
        <mxCell id="gZ1Z6LoSmOam38nPm6Iv-22" value="&lt;b&gt;Stored Procedure to Transform&lt;/b&gt;" style="rounded=0;whiteSpace=wrap;html=1;" vertex="1" parent="1">
          <mxGeometry x="1340" y="185" width="110" height="50" as="geometry" />
        </mxCell>
        <mxCell id="GgnGnMgsyZlveraI0ygd-9" value="" style="edgeStyle=orthogonalEdgeStyle;rounded=0;orthogonalLoop=1;jettySize=auto;html=1;" edge="1" parent="1" source="gZ1Z6LoSmOam38nPm6Iv-23">
          <mxGeometry relative="1" as="geometry">
            <mxPoint x="1540" y="330" as="targetPoint" />
          </mxGeometry>
        </mxCell>
        <mxCell id="gZ1Z6LoSmOam38nPm6Iv-23" value="&lt;b&gt;Stored Procedure to Transform and Normalize&lt;/b&gt;" style="rounded=0;whiteSpace=wrap;html=1;" vertex="1" parent="1">
          <mxGeometry x="1342.5" y="345.75" width="105" height="58.5" as="geometry" />
        </mxCell>
        <mxCell id="gZ1Z6LoSmOam38nPm6Iv-27" value="&lt;b&gt;Native Visualization&lt;/b&gt;" style="rounded=0;whiteSpace=wrap;html=1;" vertex="1" parent="1">
          <mxGeometry x="1970" y="170" width="120" height="60" as="geometry" />
        </mxCell>
        <mxCell id="gZ1Z6LoSmOam38nPm6Iv-28" value="" style="shape=image;verticalLabelPosition=bottom;labelBackgroundColor=default;verticalAlign=top;aspect=fixed;imageAspect=0;image=data:image/png,iVBORw0KGgoAAAANSUhEUgAAAQ4AAACUCAMAAABV5TcGAAAAWlBMVEX5+fn///8ktOj7/v/V7vZUwuvH6PU3vOort+lCvuvq+P2D0vH0+Pnk8/nr9vr9+vnc8/u35viP1vJty++Z2PGv3/Kq4fW/6fjO7vry+/5fxu15z/Cg3fST2vOVvNliAAAHWklEQVR4nO2ba4+jOgyGSyEQSGkDodzn///NYztcEoadw3xYdSP5kVbaTtuofuvYjuPebgzDMAzDMAzDMAzDMAzDMAzDMAzDMAzDMAzDMAzDMAzDMAzDMAzDMAzDMAxzhadOUp+kfPxqhUfpr9D/doF/h2enRJ755Gbur9vzSBsj/PfnY50+Xn/xU/8tkjq/nyDFXF5b4FU24mwF0QaoRzJJNN6Xgh5nTXnJnFJJ96072RzchtFoixSTIib6mjOjplyiOeXzyPA48qzvzgoqt48mAQvkVWB6PGf4+FJ1haUaycl1ofHv91zVOw0xtyvvha8MVjBVaVfocD0D63UG9BiTTxv4Kx7piGroOCKK2n6lUaSbJaDIA9kx5qIbSdMvK8RfsNFMCo9iWrp+ftrE31Ci/SaJFls62CtyHkANdRpe/4TolhWiXqCepE1c5fhMQNH0ke6fHp0D44jRUWSDI3zzDq5LuO6CHvQ1LCsM6ByqWB6owNzj0cCnn8rtqwX3zto4GhraAG8qqDqg8rGxY55n+DfCS4VeV0hghXx3FYgqog/HPUrjOscwL86BHi+nJL6AhhXu9bpC1KK8xfpomHDvhZNc0tzabynp04NzfIGJY7rZ+BMYbbJ+ffTEFdr92Qr0na4VL/8AD7BbNuu+J6cQkCK08P78E9ahtpdiKNp3TkQriTQUOfDLzLvVCx4tbHX09DcWDL1vdzzgy4ajRgWscJ89cZTjVRhM8zaU3dLnEDCT7bND0sUsaxOCb3jc1/BMX7cHPTD45qkrjpzd5zGWBJNbKicrgmcb6yvaS76LVM0976PJyRpWJSot9hWw8PLcCoNTKMGD0uzshQ7cIx0V147NOingXJKnsUGZyqTYpLK7Y1sB46ooIwcUaAwk1T6U6wZxZ9NMPN9dn4Fawoi6UxLkAO+Yq2ncFaSift5WaHEF5512+4ju04Ze4vUcMe5vTvDGfV7Y0OHklRjigxTiTnLIERzA2V8TvKfad9QhktoqNZBj7UsLN4OgMShDiaXp2zWpwrOp3SxYuk9bLqJwk23hhGr8L1cNcDUJdW4YciReEYaOLyFzUCTdI2aR6iJpoBSnUArugaf/9QSMiUVsgpboK15igVibgcZBpJYXHikcOahGiKNEuCbGjTAgQKqEKqNqHL8SFGda3tV7/oW+sm8dCwSkQDLtC1PIfsDAqIeBFSPquIk0YPadqrLUupu7HvtC4CmZjTjUENhf628d+4oU5bjYc/0sL7/sWI9zvhxxBdbLXPVDNWamHzoDLpU35SIHbrfSkyP15CD/UUEUHidyiFWOvXiI9Re2+5puNDNEUSy0pn5Ytfoux6G4t3J82tQrkBz1qXcYp5bS2AvN2kqMKlPU8DOVK8d0QY7AvcORo8PNMrYFmA5BIO5VtldpF+TAKj1YOU5ih4EarEmGskurtu/6oaggeuTWaIodBzn8ULrI8WlTr4CZRf5fZokqU/dDCRrAMWbORJ0MejbLFqPMYn6UA1dTYSRarDv273atO/rcrTuiuCyKDvvqWYdVqRznpCiHtQzzEi110/y6g8qwQOqO71VpNn+rSuGJL3s118UTXbyYvUhPvKoUi/RjVYoNj0Cq0h/OLE6/EyupDE5uJMfxCGdc6eh8G+6Z5WncCyM80aKl1P5unHOpVqbtlSQ58rmDR9txF+9jfj7R1sGcaG2/4/2t34H95MnpWsRaD0NtYwe2f7TT/qEG0t7vyL71O0ww/Y7bYz5ppNvbALcbZu3O4CnlONMugN8Ny7X7gkSE0w27YdhXXp7ETIsR9tgrjfX8ptZx4f+5E/I+eqFEeoJ1AfVKb/jd7Z3059pJN4fuIBmOuTUejldRdAnppZa7G3YwkgaSZ2/2nkVU3tbHOqQ9uWf5A35u/RY8BirtPm3mVR5Lbl2gYQSQAXdLdu0Wzkro3cLljpC4Uji3cDdKJofmXozNYwlB89IdLV3677sFKpM901g/m4I4sRB4bMMJhsW18dYEa2470JQOJzf2Ueyr5LeLwVmks1sGOyDxaSsv80ABpi010iADugeWl3JscIqjqt7OZEdnZ2gdam++A6+Z8k1fyFyQsoPZKza3ZFuVuU3/0DjhXR6nwL4jBI6G3bfpH7yz2s5BdGVbD5+28Rc8aTZsm3OrhL2tjhOVy5MZsD/Phq0OgeegzF7TDRhmRfppE39FP9pBn+X7rGma9Alm1dnJ2OA+DnbArO3TCLefgJItGkjbME6zGw+8V5VTt0yFogn3vOl1T4OUoplpmHSbLVU+E0GBt+01QcOHYu6TFkdUTVhzpcsopRSKLK1p2BjO82bE/+Tv5+DPHJcn6IbuLI3VxtAEZj4aXCCU05uDVt62cHZAPj+PWeF1AiianYeUUI72Hvr89wZyfF/d9+UsTuKJHKsAf7EA6SVtzCh8RtUm17/aoZ/VYYVxmpMg1bjRb5UO6Odvf+2kDysE+2snhmEYhmEYhmEYhmEYhmEYhmEYhmEYhmEYhmEYhmEYhmGC5z8Y+4qa+rx3yQAAAABJRU5ErkJggg==;clipPath=inset(27.7% 25.19% 19.59% 27.41%);" vertex="1" parent="1">
          <mxGeometry x="910" y="342.5" width="106.67" height="65" as="geometry" />
        </mxCell>
        <mxCell id="gZ1Z6LoSmOam38nPm6Iv-29" value="" style="endArrow=classic;html=1;rounded=0;" edge="1" parent="1">
          <mxGeometry width="50" height="50" relative="1" as="geometry">
            <mxPoint x="560" y="397.5" as="sourcePoint" />
            <mxPoint x="560" y="487.5" as="targetPoint" />
          </mxGeometry>
        </mxCell>
        <mxCell id="gZ1Z6LoSmOam38nPm6Iv-30" value="&lt;b&gt;API&lt;/b&gt;" style="rounded=0;whiteSpace=wrap;html=1;" vertex="1" parent="1">
          <mxGeometry x="500" y="490" width="120" height="60" as="geometry" />
        </mxCell>
        <mxCell id="gZ1Z6LoSmOam38nPm6Iv-31" value="&lt;b&gt;Plottly dash app&lt;/b&gt;" style="rounded=0;whiteSpace=wrap;html=1;" vertex="1" parent="1">
          <mxGeometry x="1980" y="338.5" width="120" height="60" as="geometry" />
        </mxCell>
        <mxCell id="gZ1Z6LoSmOam38nPm6Iv-32" value="" style="endArrow=classic;html=1;rounded=0;startArrow=classic;startFill=1;entryX=1;entryY=0.75;entryDx=0;entryDy=0;" edge="1" parent="1" source="gZ1Z6LoSmOam38nPm6Iv-31" target="GgnGnMgsyZlveraI0ygd-13">
          <mxGeometry width="50" height="50" relative="1" as="geometry">
            <mxPoint x="1780" y="370" as="sourcePoint" />
            <mxPoint x="1840" y="300" as="targetPoint" />
            <Array as="points">
              <mxPoint x="1890" y="370" />
              <mxPoint x="1890" y="305" />
            </Array>
          </mxGeometry>
        </mxCell>
        <mxCell id="gZ1Z6LoSmOam38nPm6Iv-33" value="" style="endArrow=classic;startArrow=classic;html=1;rounded=0;entryX=0;entryY=0.25;entryDx=0;entryDy=0;exitX=1;exitY=0.25;exitDx=0;exitDy=0;" edge="1" parent="1" target="gZ1Z6LoSmOam38nPm6Iv-27" source="GgnGnMgsyZlveraI0ygd-13">
          <mxGeometry width="50" height="50" relative="1" as="geometry">
            <mxPoint x="1840" y="280" as="sourcePoint" />
            <mxPoint x="1720" y="230" as="targetPoint" />
            <Array as="points">
              <mxPoint x="1890" y="275" />
              <mxPoint x="1890" y="185" />
            </Array>
          </mxGeometry>
        </mxCell>
        <mxCell id="gZ1Z6LoSmOam38nPm6Iv-34" value="" style="edgeStyle=orthogonalEdgeStyle;rounded=0;orthogonalLoop=1;jettySize=auto;html=1;" edge="1" parent="1" source="gZ1Z6LoSmOam38nPm6Iv-35" target="gZ1Z6LoSmOam38nPm6Iv-38">
          <mxGeometry relative="1" as="geometry" />
        </mxCell>
        <mxCell id="gZ1Z6LoSmOam38nPm6Iv-35" value="&lt;b&gt;Vector Embeddings&lt;/b&gt;" style="rounded=0;whiteSpace=wrap;html=1;" vertex="1" parent="1">
          <mxGeometry x="2450" y="242.5" width="120" height="60" as="geometry" />
        </mxCell>
        <mxCell id="gZ1Z6LoSmOam38nPm6Iv-37" value="" style="edgeStyle=orthogonalEdgeStyle;rounded=0;orthogonalLoop=1;jettySize=auto;html=1;" edge="1" parent="1" source="gZ1Z6LoSmOam38nPm6Iv-38" target="gZ1Z6LoSmOam38nPm6Iv-40">
          <mxGeometry relative="1" as="geometry" />
        </mxCell>
        <mxCell id="gZ1Z6LoSmOam38nPm6Iv-38" value="&lt;b&gt;Vector Search&lt;/b&gt;" style="rounded=0;whiteSpace=wrap;html=1;" vertex="1" parent="1">
          <mxGeometry x="2630" y="242.5" width="120" height="60" as="geometry" />
        </mxCell>
        <mxCell id="gZ1Z6LoSmOam38nPm6Iv-39" value="" style="edgeStyle=orthogonalEdgeStyle;rounded=0;orthogonalLoop=1;jettySize=auto;html=1;" edge="1" parent="1" source="gZ1Z6LoSmOam38nPm6Iv-40">
          <mxGeometry relative="1" as="geometry">
            <mxPoint x="2990" y="272.5" as="targetPoint" />
          </mxGeometry>
        </mxCell>
        <mxCell id="GgnGnMgsyZlveraI0ygd-23" value="" style="edgeStyle=orthogonalEdgeStyle;rounded=0;orthogonalLoop=1;jettySize=auto;html=1;startArrow=classic;startFill=1;" edge="1" parent="1" source="gZ1Z6LoSmOam38nPm6Iv-40" target="GgnGnMgsyZlveraI0ygd-22">
          <mxGeometry relative="1" as="geometry" />
        </mxCell>
        <mxCell id="gZ1Z6LoSmOam38nPm6Iv-40" value="&lt;b&gt;Cortex AI&lt;/b&gt;" style="rounded=0;whiteSpace=wrap;html=1;" vertex="1" parent="1">
          <mxGeometry x="2810" y="242.5" width="120" height="60" as="geometry" />
        </mxCell>
        <mxCell id="gZ1Z6LoSmOam38nPm6Iv-43" value="&lt;b&gt;Sends Email via SMTP&lt;/b&gt;" style="rounded=0;whiteSpace=wrap;html=1;" vertex="1" parent="1">
          <mxGeometry x="2990" y="530" width="120" height="60" as="geometry" />
        </mxCell>
        <mxCell id="gZ1Z6LoSmOam38nPm6Iv-44" value="" style="endArrow=classic;html=1;rounded=0;" edge="1" parent="1" source="gZ1Z6LoSmOam38nPm6Iv-10">
          <mxGeometry width="50" height="50" relative="1" as="geometry">
            <mxPoint x="830" y="250" as="sourcePoint" />
            <mxPoint x="900.7106781186548" y="200" as="targetPoint" />
          </mxGeometry>
        </mxCell>
        <mxCell id="gZ1Z6LoSmOam38nPm6Iv-45" value="" style="endArrow=classic;html=1;rounded=0;entryX=0;entryY=0.25;entryDx=0;entryDy=0;" edge="1" parent="1" source="gZ1Z6LoSmOam38nPm6Iv-9" target="gZ1Z6LoSmOam38nPm6Iv-28">
          <mxGeometry width="50" height="50" relative="1" as="geometry">
            <mxPoint x="850" y="390" as="sourcePoint" />
            <mxPoint x="900" y="340" as="targetPoint" />
          </mxGeometry>
        </mxCell>
        <mxCell id="GgnGnMgsyZlveraI0ygd-2" value="&lt;b&gt;Transformed Tables&lt;/b&gt;" style="rounded=0;whiteSpace=wrap;html=1;" vertex="1" parent="1">
          <mxGeometry x="1510" y="280" width="110" height="47" as="geometry" />
        </mxCell>
        <mxCell id="GgnGnMgsyZlveraI0ygd-12" value="" style="edgeStyle=orthogonalEdgeStyle;rounded=0;orthogonalLoop=1;jettySize=auto;html=1;" edge="1" parent="1" source="GgnGnMgsyZlveraI0ygd-3" target="GgnGnMgsyZlveraI0ygd-11">
          <mxGeometry relative="1" as="geometry" />
        </mxCell>
        <mxCell id="GgnGnMgsyZlveraI0ygd-3" value="Database" style="rounded=0;whiteSpace=wrap;html=1;" vertex="1" parent="1">
          <mxGeometry x="1570" y="560" width="250" height="90" as="geometry" />
        </mxCell>
        <mxCell id="GgnGnMgsyZlveraI0ygd-4" value="" style="endArrow=classic;html=1;rounded=0;entryX=0.198;entryY=0.015;entryDx=0;entryDy=0;entryPerimeter=0;" edge="1" parent="1" target="GgnGnMgsyZlveraI0ygd-3">
          <mxGeometry width="50" height="50" relative="1" as="geometry">
            <mxPoint x="1570" y="327" as="sourcePoint" />
            <mxPoint x="1620" y="532" as="targetPoint" />
            <Array as="points">
              <mxPoint x="1570" y="390" />
              <mxPoint x="1620" y="390" />
            </Array>
          </mxGeometry>
        </mxCell>
        <mxCell id="GgnGnMgsyZlveraI0ygd-5" value="" style="endArrow=classic;html=1;rounded=0;entryX=0;entryY=1;entryDx=0;entryDy=0;" edge="1" parent="1" target="GgnGnMgsyZlveraI0ygd-3">
          <mxGeometry width="50" height="50" relative="1" as="geometry">
            <mxPoint x="1100" y="400" as="sourcePoint" />
            <mxPoint x="1100" y="600" as="targetPoint" />
            <Array as="points">
              <mxPoint x="1100" y="640" />
            </Array>
          </mxGeometry>
        </mxCell>
        <mxCell id="GgnGnMgsyZlveraI0ygd-6" value="" style="endArrow=classic;html=1;rounded=0;entryX=0;entryY=0.75;entryDx=0;entryDy=0;" edge="1" parent="1" target="GgnGnMgsyZlveraI0ygd-3">
          <mxGeometry width="50" height="50" relative="1" as="geometry">
            <mxPoint x="1140" y="230" as="sourcePoint" />
            <mxPoint x="1160" y="600" as="targetPoint" />
            <Array as="points">
              <mxPoint x="1160" y="230" />
              <mxPoint x="1160" y="620" />
            </Array>
          </mxGeometry>
        </mxCell>
        <mxCell id="GgnGnMgsyZlveraI0ygd-11" value="Schema" style="rounded=0;whiteSpace=wrap;html=1;" vertex="1" parent="1">
          <mxGeometry x="1620" y="740" width="150" height="60" as="geometry" />
        </mxCell>
        <mxCell id="GgnGnMgsyZlveraI0ygd-14" value="" style="edgeStyle=orthogonalEdgeStyle;rounded=0;orthogonalLoop=1;jettySize=auto;html=1;" edge="1" parent="1" source="GgnGnMgsyZlveraI0ygd-13" target="GgnGnMgsyZlveraI0ygd-2">
          <mxGeometry relative="1" as="geometry" />
        </mxCell>
        <mxCell id="GgnGnMgsyZlveraI0ygd-13" value="&lt;b&gt;Views&lt;/b&gt;" style="rounded=0;whiteSpace=wrap;html=1;" vertex="1" parent="1">
          <mxGeometry x="1680" y="260" width="120" height="60" as="geometry" />
        </mxCell>
        <mxCell id="GgnGnMgsyZlveraI0ygd-15" value="" style="endArrow=classic;html=1;rounded=0;entryX=0.675;entryY=0;entryDx=0;entryDy=0;entryPerimeter=0;" edge="1" parent="1" target="GgnGnMgsyZlveraI0ygd-3">
          <mxGeometry width="50" height="50" relative="1" as="geometry">
            <mxPoint x="1740" y="320" as="sourcePoint" />
            <mxPoint x="1790" y="270" as="targetPoint" />
          </mxGeometry>
        </mxCell>
        <mxCell id="GgnGnMgsyZlveraI0ygd-16" value="" style="endArrow=classic;html=1;rounded=0;entryX=0.75;entryY=1;entryDx=0;entryDy=0;exitX=0.5;exitY=1;exitDx=0;exitDy=0;" edge="1" parent="1" source="GgnGnMgsyZlveraI0ygd-17" target="GgnGnMgsyZlveraI0ygd-13">
          <mxGeometry width="50" height="50" relative="1" as="geometry">
            <mxPoint x="2250" y="300" as="sourcePoint" />
            <mxPoint x="2260" y="500" as="targetPoint" />
            <Array as="points">
              <mxPoint x="2185" y="380" />
              <mxPoint x="2185" y="480" />
              <mxPoint x="1770" y="480" />
            </Array>
          </mxGeometry>
        </mxCell>
        <mxCell id="GgnGnMgsyZlveraI0ygd-20" value="" style="edgeStyle=orthogonalEdgeStyle;rounded=0;orthogonalLoop=1;jettySize=auto;html=1;" edge="1" parent="1" source="GgnGnMgsyZlveraI0ygd-17" target="GgnGnMgsyZlveraI0ygd-19">
          <mxGeometry relative="1" as="geometry" />
        </mxCell>
        <mxCell id="GgnGnMgsyZlveraI0ygd-17" value="&lt;b&gt;Stored Procedure to call External Function(Lamda)&lt;/b&gt;" style="rounded=0;whiteSpace=wrap;html=1;" vertex="1" parent="1">
          <mxGeometry x="2125" y="235" width="120" height="60" as="geometry" />
        </mxCell>
        <mxCell id="GgnGnMgsyZlveraI0ygd-21" value="" style="edgeStyle=orthogonalEdgeStyle;rounded=0;orthogonalLoop=1;jettySize=auto;html=1;" edge="1" parent="1" source="GgnGnMgsyZlveraI0ygd-19" target="gZ1Z6LoSmOam38nPm6Iv-35">
          <mxGeometry relative="1" as="geometry" />
        </mxCell>
        <mxCell id="GgnGnMgsyZlveraI0ygd-19" value="create embedings" style="sketch=0;outlineConnect=0;fontColor=#232F3E;gradientColor=none;strokeColor=#ffffff;fillColor=#232F3E;dashed=0;verticalLabelPosition=middle;verticalAlign=bottom;align=center;html=1;whiteSpace=wrap;fontSize=10;fontStyle=1;spacing=3;shape=mxgraph.aws4.productIcon;prIcon=mxgraph.aws4.lambda;" vertex="1" parent="1">
          <mxGeometry x="2300" y="212.5" width="90" height="105" as="geometry" />
        </mxCell>
        <mxCell id="GgnGnMgsyZlveraI0ygd-22" value="GPT 3.5&amp;nbsp;" style="rounded=0;whiteSpace=wrap;html=1;" vertex="1" parent="1">
          <mxGeometry x="2810" y="404.25" width="120" height="60" as="geometry" />
        </mxCell>
        <mxCell id="GgnGnMgsyZlveraI0ygd-27" value="" style="edgeStyle=orthogonalEdgeStyle;rounded=0;orthogonalLoop=1;jettySize=auto;html=1;" edge="1" parent="1" source="GgnGnMgsyZlveraI0ygd-24" target="gZ1Z6LoSmOam38nPm6Iv-43">
          <mxGeometry relative="1" as="geometry" />
        </mxCell>
        <mxCell id="GgnGnMgsyZlveraI0ygd-24" value="Format the response" style="sketch=0;outlineConnect=0;fontColor=#232F3E;gradientColor=none;strokeColor=#ffffff;fillColor=#232F3E;dashed=0;verticalLabelPosition=middle;verticalAlign=bottom;align=center;html=1;whiteSpace=wrap;fontSize=10;fontStyle=1;spacing=3;shape=mxgraph.aws4.productIcon;prIcon=mxgraph.aws4.lambda;" vertex="1" parent="1">
          <mxGeometry x="3005" y="359.25" width="90" height="105" as="geometry" />
        </mxCell>
        <mxCell id="GgnGnMgsyZlveraI0ygd-26" value="" style="edgeStyle=orthogonalEdgeStyle;rounded=0;orthogonalLoop=1;jettySize=auto;html=1;" edge="1" parent="1" source="GgnGnMgsyZlveraI0ygd-25" target="GgnGnMgsyZlveraI0ygd-24">
          <mxGeometry relative="1" as="geometry" />
        </mxCell>
        <mxCell id="GgnGnMgsyZlveraI0ygd-25" value="&lt;b&gt;Stored Procedure to call External Function(Lamda)&lt;/b&gt;" style="rounded=0;whiteSpace=wrap;html=1;" vertex="1" parent="1">
          <mxGeometry x="2990" y="242.5" width="120" height="60" as="geometry" />
        </mxCell>
      </root>
    </mxGraphModel>
  </diagram>
</mxfile>
